<?xml version="1.0" encoding="UTF-8"?>
<!DOCTYPE svg PUBLIC "-//W3C//DTD SVG 1.1//EN" "http://www.w3.org/Graphics/SVG/1.1/DTD/svg11.dtd">
<svg xmlns="http://www.w3.org/2000/svg" version="1.1" width="512px" height="512px" style="shape-rendering:geometricPrecision; text-rendering:geometricPrecision; image-rendering:optimizeQuality; fill-rule:evenodd; clip-rule:evenodd" xmlns:xlink="http://www.w3.org/1999/xlink">
<g><path style="opacity:0.995" fill="#3eb47b" d="M 370.5,115.5 C 349.966,111.305 328.966,108.138 307.5,106C 289.851,104.649 272.184,104.315 254.5,105C 233.885,107.148 215.885,114.981 200.5,128.5C 191.007,134.479 182.507,141.812 175,150.5C 170.219,138.916 168.552,126.916 170,114.5C 161.886,130.281 150.053,142.447 134.5,151C 117.258,157.338 101.258,155.005 86.5,144C 83.3347,141.665 80.3347,139.165 77.5,136.5C 72.3523,128.808 71.1856,120.475 74,111.5C 81.1153,98.0513 91.282,87.5513 104.5,80C 126.742,66.4377 150.742,61.1044 176.5,64C 183.074,65.3706 188.907,68.2039 194,72.5C 198.069,69.4368 202.402,66.7701 207,64.5C 204.181,51.5508 201.181,38.5508 198,25.5C 197.333,22.1667 197.333,18.8333 198,15.5C 198.5,13.6667 199.667,12.5 201.5,12C 214.911,8.29872 228.578,6.96538 242.5,8C 245.013,14.8991 246.513,22.0658 247,29.5C 247.5,38.4938 247.666,47.4938 247.5,56.5C 256.758,58.2951 264.758,62.4618 271.5,69C 304.968,62.402 333.802,70.902 358,94.5C 363.714,100.596 367.88,107.596 370.5,115.5 Z"/></g>
<g><path style="opacity:0.997" fill="#e24263" d="M 370.5,115.5 C 393.957,126.111 413.457,141.778 429,162.5C 469.469,217.872 493.469,279.872 501,348.5C 503.95,374.917 498.784,399.584 485.5,422.5C 437.413,462.109 382.413,476.942 320.5,467C 272.38,455.371 234.88,428.871 208,387.5C 186.944,355.67 174.61,320.67 171,282.5C 165.394,240.358 169.728,199.358 184,159.5C 188.479,148.537 193.979,138.203 200.5,128.5C 215.885,114.981 233.885,107.148 254.5,105C 272.184,104.315 289.851,104.649 307.5,106C 328.966,108.138 349.966,111.305 370.5,115.5 Z"/></g>
<g><path style="opacity:0.997" fill="#7e63aa" d="M 200.5,128.5 C 193.979,138.203 188.479,148.537 184,159.5C 169.728,199.358 165.394,240.358 171,282.5C 174.61,320.67 186.944,355.67 208,387.5C 234.88,428.871 272.38,455.371 320.5,467C 382.413,476.942 437.413,462.109 485.5,422.5C 463.652,454.486 434.318,476.986 397.5,490C 356.071,504.558 314.071,506.392 271.5,495.5C 246.373,487.271 222.706,475.771 200.5,461C 155.144,426.482 129.311,380.649 123,323.5C 116.345,272.447 125.678,224.781 151,180.5C 90.3344,261.148 79.001,348.482 117,442.5C 121.982,454.461 127.482,466.128 133.5,477.5C 102.411,462.916 76.9107,441.583 57,413.5C 29.4618,375.232 13.1284,332.566 8,285.5C 4.26095,222.992 27.4276,173.325 77.5,136.5C 80.3347,139.165 83.3347,141.665 86.5,144C 101.258,155.005 117.258,157.338 134.5,151C 150.053,142.447 161.886,130.281 170,114.5C 168.552,126.916 170.219,138.916 175,150.5C 182.507,141.812 191.007,134.479 200.5,128.5 Z"/></g>
<g><path style="opacity:1" fill="#fefdfe" d="M 271.5,129.5 C 309.288,125.122 334.121,140.789 346,176.5C 357.026,167.978 369.193,166.144 382.5,171C 400.319,179.147 414.819,191.314 426,207.5C 438.44,224.382 447.106,243.048 452,263.5C 452.505,270.539 452.505,277.539 452,284.5C 470.275,308.266 476.942,334.933 472,364.5C 467.227,378.933 458.394,390.1 445.5,398C 439.403,401.382 433.07,404.216 426.5,406.5C 425.914,406.291 425.414,405.957 425,405.5C 420.833,424.023 410,436.856 392.5,444C 355.843,457.047 325.343,448.547 301,418.5C 288.143,425.981 275.31,426.148 262.5,419C 244.074,407.575 230.241,392.075 221,372.5C 216.013,359.977 216.346,347.643 222,335.5C 223.308,333.359 224.808,331.359 226.5,329.5C 197.923,310.992 186.09,284.659 191,250.5C 192.406,234.941 197.739,220.941 207,208.5C 208.815,206.595 210.815,204.928 213,203.5C 214.545,164.472 234.045,139.805 271.5,129.5 Z"/></g>
<g><path style="opacity:0.997" fill="#5f4b80" d="M 271.5,495.5 C 223.387,505.403 177.387,499.403 133.5,477.5C 127.482,466.128 121.982,454.461 117,442.5C 79.001,348.482 90.3344,261.148 151,180.5C 125.678,224.781 116.345,272.447 123,323.5C 129.311,380.649 155.144,426.482 200.5,461C 222.706,475.771 246.373,487.271 271.5,495.5 Z"/></g>
<g><path style="opacity:1" fill="#3b131b" d="M 262.5,203.5 C 268.926,203.252 274.926,204.752 280.5,208C 293.609,216.721 304.109,227.888 312,241.5C 318.209,252.586 323.876,263.919 329,275.5C 335.216,259.753 338.883,243.419 340,226.5C 343.892,220.741 348.559,220.074 354,224.5C 355.006,226.534 355.506,228.7 355.5,231C 353.67,246.128 350.837,260.961 347,275.5C 367.423,261.527 389.589,258.027 413.5,265C 418.224,267.435 419.724,271.269 418,276.5C 416.786,278.049 415.286,279.215 413.5,280C 405.239,278.99 396.906,278.157 388.5,277.5C 373.852,277.996 361.185,283.163 350.5,293C 381.482,304.647 403.315,325.814 416,356.5C 417.05,364.572 413.55,368.072 405.5,367C 404.069,366.535 402.903,365.701 402,364.5C 391.978,337.145 373.312,318.478 346,308.5C 345.5,308.833 345,309.167 344.5,309.5C 347.333,327.522 347.166,345.522 344,363.5C 342.789,369.132 340.789,374.466 338,379.5C 330.896,383.535 326.396,381.701 324.5,374C 326.758,367.641 328.592,361.141 330,354.5C 330.667,343.167 330.667,331.833 330,320.5C 329.512,315.393 328.512,310.393 327,305.5C 322.252,304.365 317.419,304.198 312.5,305C 296.465,306.717 280.965,310.551 266,316.5C 261.266,315.933 258.766,313.266 258.5,308.5C 258.556,305.889 259.556,303.722 261.5,302C 279.046,294.409 297.379,290.242 316.5,289.5C 308.983,264.623 295.983,243.123 277.5,225C 272.446,221.806 267.112,219.139 261.5,217C 257.419,212.218 257.752,207.718 262.5,203.5 Z"/></g>
</svg>
